<svg id="icons" enable-background="new 0 0 64 64" height="512" viewBox="0 0 64 64" width="512" xmlns="http://www.w3.org/2000/svg"><path d="m47.01 50.495v-3.99h13.99c1.101 0 2 .9 2 2 0 1.11-.899 2-2 2h-8.01c1.11 0 2 .9 2 2 0 1.11-.89 2-2 2h4c1.11 0 2 .9 2 2 0 1.11-.89 2-2 2h-8c1.11 0 2 .9 2 2 0 1.11-.89 2-2 2h-36.99c-1.1 0-2-.89-2-2 0-1.1.9-2 2-2h5c-1.1 0-2-.89-2-2 0-1.1.9-2 2-2h-14c-1.109 0-2-.89-2-2 0-1.1.891-2 2-2h4c-1.109 0-2-.89-2-2 0-1.1.891-2 2-2h10.01v3.99h7l2-1.99h12l2 1.99z" fill="#5d9cec"/><path d="m47.01 46.505v3.99h-7l-2-1.99h-12l-2 1.99h-7v-3.99-43.01-.01c.011-1.101.891-1.99 2-1.99h26c1.11 0 1.99.89 2 1.99v.01zm-5-11.99-10-19.01-10 19.01zm-2-26.01c0-1.1-.89-2-2-2h-12c-1.1 0-2 .9-2 2 0 1.101.9 2 2 2h12c1.11 0 2-.9 2-2z" fill="#ffce54"/><path d="m45.01 1.495h-3.003c1.11 0 1.99.89 2 1.99v.01 43.01 3.99h3.003v-3.99-43.01-.01c-.01-1.1-.89-1.99-2-1.99z" fill="#f6bb42"/><path d="m32.01 15.505 10 19.01h-20z" fill="#ed5565"/><path d="m12.008 63.504c-1.654 0-3-1.346-3-3s1.346-3 3-3c.553 0 1 .447 1 1s-.447 1-1 1c-.552 0-1 .448-1 1s.448 1 1 1c.553 0 1 .447 1 1s-.447 1-1 1z"/><path d="m17.008 59.506c-1.654 0-3-1.346-3-3s1.346-3 3-3c.553 0 1 .447 1 1s-.447 1-1 1c-.552 0-1 .448-1 1s.448 1 1 1c.553 0 1 .447 1 1s-.447 1-1 1z"/><path d="m3 55.504c-1.654 0-3-1.346-3-3s1.346-3 3-3c.553 0 1 .447 1 1s-.447 1-1 1c-.552 0-1 .448-1 1s.448 1 1 1c.553 0 1 .447 1 1s-.447 1-1 1z"/><path d="m7.002 51.504c-1.654 0-3-1.346-3-3s1.346-3 3-3c.553 0 1 .447 1 1s-.447 1-1 1c-.552 0-1 .448-1 1s.448 1 1 1c.553 0 1 .447 1 1s-.447 1-1 1z"/><path d="m48.996 63.504c-.553 0-1-.447-1-1s.447-1 1-1c.552 0 1-.448 1-1s-.448-1-1-1c-.553 0-1-.447-1-1s.447-1 1-1c1.654 0 3 1.346 3 3s-1.346 3-3 3z"/><path d="m56.998 59.506c-.553 0-1-.447-1-1s.447-1 1-1c.552 0 1-.448 1-1s-.448-1-1-1c-.553 0-1-.447-1-1s.447-1 1-1c1.654 0 3 1.346 3 3s-1.346 3-3 3z"/><path d="m52.998 55.504c-.553 0-1-.447-1-1s.447-1 1-1c.552 0 1-.448 1-1s-.448-1-1-1c-.553 0-1-.447-1-1s.447-1 1-1c1.654 0 3 1.346 3 3s-1.346 3-3 3z"/><path d="m61 51.504c-.553 0-1-.447-1-1s.447-1 1-1c.552 0 1-.448 1-1s-.448-1-1-1c-.553 0-1-.447-1-1s.447-1 1-1c1.654 0 3 1.346 3 3s-1.346 3-3 3z"/><path d="m48.996 63.504h-36.988c-.553 0-1-.447-1-1s.447-1 1-1h36.988c.553 0 1 .447 1 1s-.447 1-1 1z"/><path d="m17.008 59.506h-5c-.553 0-1-.447-1-1s.447-1 1-1h5c.553 0 1 .447 1 1s-.447 1-1 1z"/><path d="m56.998 59.506h-8.002c-.553 0-1-.447-1-1s.447-1 1-1h8.002c.553 0 1 .447 1 1s-.447 1-1 1z"/><path d="m56.998 55.508h-4c-.553 0-1-.447-1-1s.447-1 1-1h4c.553 0 1 .447 1 1s-.447 1-1 1z"/><path d="m17.008 55.504h-14.008c-.553 0-1-.447-1-1s.447-1 1-1h14.008c.553 0 1 .447 1 1s-.447 1-1 1z"/><path d="m16.781 47.5h-9.779c-.553 0-1-.447-1-1s.447-1 1-1h9.779c.553 0 1 .447 1 1s-.447 1-1 1z"/><path d="m7.002 51.504h-4.002c-.553 0-1-.447-1-1s.447-1 1-1h4.002c.553 0 1 .447 1 1s-.447 1-1 1z"/><path d="m61 51.504h-8.002c-.553 0-1-.447-1-1s.447-1 1-1h8.002c.553 0 1 .447 1 1s-.447 1-1 1z"/><path d="m61 47.504h-13.814c-.553 0-1-.447-1-1s.447-1 1-1h13.814c.553 0 1 .447 1 1s-.447 1-1 1z"/><path d="m47.016 51.498c-.553 0-1-.447-1-1v-47.018c0-.553.447-1 1-1s1 .447 1 1v47.018c0 .553-.448 1-1 1z"/><path d="m24.016 51.498h-7.016c-.553 0-1-.447-1-1s.447-1 1-1h7.016c.553 0 1 .447 1 1s-.448 1-1 1z"/><path d="m24.016 51.498c-.256 0-.512-.098-.707-.293-.391-.391-.391-1.023 0-1.414l1.997-1.997c.391-.391 1.023-.391 1.414 0s.391 1.023 0 1.414l-1.997 1.997c-.196.195-.452.293-.707.293z"/><path d="m47.027 51.498h-7.016c-.553 0-1-.447-1-1s.447-1 1-1h7.016c.553 0 1 .447 1 1s-.447 1-1 1z"/><path d="m40.012 51.498c-.256 0-.512-.098-.707-.293l-1.997-1.997c-.391-.391-.391-1.023 0-1.414s1.023-.391 1.414 0l1.997 1.997c.391.391.391 1.023 0 1.414-.196.195-.451.293-.707.293z"/><path d="m38.015 49.501h-12.002c-.553 0-1-.447-1-1s.447-1 1-1h12.002c.553 0 1 .447 1 1s-.448 1-1 1z"/><path d="m47.016 4.496c-.553 0-1-.447-1-1 0-.552-.448-1-1-1-.553 0-1-.447-1-1s.447-1 1-1c1.654 0 3 1.346 3 3 0 .553-.448 1-1 1z"/><path d="m17.01 51.498c-.553 0-1-.447-1-1v-47.018c0-.553.447-1 1-1s1 .447 1 1v47.018c0 .553-.447 1-1 1z"/><path d="m17.01 4.496c-.553 0-1-.447-1-1 0-1.654 1.346-3 3-3 .553 0 1 .447 1 1s-.447 1-1 1c-.552 0-1 .448-1 1 0 .553-.447 1-1 1z"/><path d="m45.016 2.496h-26.006c-.553 0-1-.447-1-1s.447-1 1-1h26.006c.553 0 1 .447 1 1s-.448 1-1 1z"/><path d="m26.016 11.503c-1.654 0-3-1.346-3-3s1.346-3 3-3c.553 0 1 .447 1 1s-.447 1-1 1c-.552 0-1 .448-1 1s.448 1 1 1c.553 0 1 .447 1 1s-.448 1-1 1z"/><path d="m38.017 11.503c-.553 0-1-.447-1-1s.447-1 1-1c.552 0 1-.448 1-1s-.448-1-1-1c-.553 0-1-.447-1-1s.447-1 1-1c1.654 0 3 1.346 3 3s-1.346 3-3 3z"/><path d="m38.017 7.503h-12.001c-.553 0-1-.447-1-1s.447-1 1-1h12.001c.553 0 1 .447 1 1s-.448 1-1 1z"/><path d="m38.017 11.502h-12.001c-.553 0-1-.447-1-1s.447-1 1-1h12.001c.553 0 1 .447 1 1s-.448 1-1 1z"/><path d="m42.034 35.511c-.005 0-.012.001-.02 0h-19.997c-.351 0-.675-.184-.856-.483-.181-.3-.191-.672-.028-.982l9.999-19.005c.346-.656 1.424-.656 1.77 0l9.916 18.848c.137.171.218.388.218.623-.002.551-.449.999-1.002.999zm-18.361-2h16.686l-8.343-15.857z"/><path d="m32.016 29.503c-.553 0-1-.447-1-1v-5c0-.553.447-1 1-1s1 .447 1 1v5c0 .553-.448 1-1 1z"/><path d="m32.045 32.504c-.553 0-1.005-.447-1.005-1s.442-1 .994-1h.011c.552 0 1 .447 1 1s-.448 1-1 1z"/><path d="m39.016 40.505h-14.002c-.553 0-1-.447-1-1s.447-1 1-1h14.002c.553 0 1 .447 1 1s-.448 1-1 1z"/><path d="m36.016 43.508h-8.002c-.553 0-1-.447-1-1s.447-1 1-1h8.002c.553 0 1 .447 1 1s-.448 1-1 1z"/></svg>